File Name

Watchmen Ultimate Cut 2009 800p BRRip H264.mp4

File Size
Format : MPEG-4
Format profile : Base Media
Codec ID : isom
File size : 3.75 GiB
Duration : 3h 35mn
Overall bit rate : 2 492 Kbps

Video
ID : 1
Format : AVC
Format/Info : Advanced Video Codec
Format profile : High@L4.1
Format settings, CABAC : Yes
Format settings, ReFrames : 3 frames
Codec ID : avc1
Codec ID/Info : Advanced Video Coding
Duration : 3h 35mn
Bit rate mode : Variable
Bit rate : 1 849 Kbps
Maximum bit rate : 13.0 Mbps
Width : 1 920 pixels
Height : 800 pixels
Display aspect ratio : 2.40:1
Frame rate mode : Constant
Frame rate : 23.976 fps
Resolution : 24 bits
Colorimetry : 4:2:0
Scan type : Progressive
Bits/(Pixel*Frame) : 0.050
Stream size : 2.78 GiB (74%)

Audio #1
ID : 2
Format : AAC
Format/Info : Advanced Audio Codec
Format version : Version 4
Format profile : LC
Format settings, SBR : No
Codec ID : 40
Duration : 3h 35mn
Bit rate mode : Variable
Bit rate : 192 Kbps
Maximum bit rate : 199 Kbps
Channel(s) : 2 channels
Channel positions : L R
Sampling rate : 48.0 KHz
Resolution : 16 bits
Stream size : 294 MiB (8%)

Audio #2
ID : 3
Format : AAC
Format/Info : Advanced Audio Codec
Format version : Version 4
Format profile : LC
Format settings, SBR : No
Codec ID : 40
Duration : 3h 35mn
Bit rate mode : Variable
Bit rate : 448 Kbps
Maximum bit rate : 462 Kbps
Channel(s) : 6 channels
Channel positions : Front: L C R, Rear: L R, LFE
Sampling rate : 48.0 KHz
Resolution : 16 bits
Stream size : 690 MiB (18%)

English SRT : External

Language : English

 
http://www.imdb.com/title/tt0409459/

Release Date: 6 March 2009 (USA) 

Genre: Action | Mystery | Sci-Fi | Thriller 

Plot: In an alternate 1985 where former superheroes exist, the murder of a colleague sends active vigilante Rorschach into his own sprawling investigation, uncovering something that could completely change the course of history as we know it. 

Cast: 
Malin Åkerman ... Laurie Jupiter / Silk Spectre II (as Malin Akerman)
Billy Crudup ... Jon Osterman / Dr. Manhattan
Matthew Goode ... Adrian Veidt / Ozymandias
Jackie Earle Haley ... Rorschach / Walter Kovacs
Jeffrey Dean Morgan ... Edward Blake / The Comedian
Patrick Wilson ... Dan Dreiberg / Nite Owl II
Carla Gugino ... Sally Jupiter / Silk Spectre
Matt Frewer ... Edgar Jacobi / Moloch
Stephen McHattie ... Hollis Mason / Old Nite Owl
Laura Mennell ... Janey Slater
Rob LaBelle ... Wally Weaver
Gary Houston ... John McLaughlin
James M. Connor ... Pat Buchanan (as James Michael Connor)
Mary Ann Burger ... Eleanor Clift
John Shaw ... Doug Roth





 
http://thepiratebay.org/user/hiest







Screenshots:
 
http://www.imagebam.com/image/bc4edb94202779
 
http://www.imagebam.com/image/c439c494202828
 
http://www.imagebam.com/image/64a22c94202875
 
http://www.imagebam.com/image/19361e94202937
 
http://www.imagebam.com/image/04f8e094202980
 
http://www.imagebam.com/image/da1aa394203010
 
http://www.imagebam.com/image/b877df94203024
 
http://www.imagebam.com/image/fc519d94203042
 
http://www.imagebam.com/image/e9442c94203062
 
http://www.imagebam.com/image/8b59dd94203096
 
http://www.imagebam.com/image/b8829f94203150